<svg preserveAspectRatio="none" overflow="visible" style="display: block;" width="14" height="14" viewBox="0 0 14 14" fill="none" xmlns="http://www.w3.org/2000/svg">
<g id="Icon" clip-path="url(#clip0_0_8)">
<path id="Vector" d="M8.15675 6.46217H9.39283C9.42151 6.46217 9.44902 6.45082 9.46935 6.43059C9.48968 6.41037 9.50118 6.38292 9.50133 6.35425V5.2535C9.50133 5.22472 9.4899 5.19713 9.46955 5.17678C9.44921 5.15643 9.42161 5.145 9.39283 5.145H8.15675C8.12813 5.145 8.10068 5.15637 8.08044 5.17661C8.0602 5.19685 8.04883 5.2243 8.04883 5.25292V6.35425C8.04883 6.41375 8.09725 6.46217 8.15675 6.46217ZM6.43358 3.29467H7.66908C7.69786 3.29467 7.72546 3.28324 7.7458 3.26289C7.76615 3.24254 7.77758 3.21494 7.77758 3.18617V2.08483C7.77743 2.05616 7.76593 2.02871 7.7456 2.00849C7.72527 1.98827 7.69776 1.97692 7.66908 1.97692H6.43358C6.40496 1.97692 6.37751 1.98829 6.35727 2.00852C6.33704 2.02876 6.32567 2.05621 6.32567 2.08483V3.18617C6.32567 3.24567 6.3735 3.29467 6.43358 3.29467ZM6.43358 4.87842H7.66908C7.69781 4.87826 7.72532 4.86678 7.74564 4.84647C7.76595 4.82615 7.77743 4.79865 7.77758 4.76992V3.66917C7.77743 3.64049 7.76593 3.61304 7.7456 3.59282C7.72527 3.5726 7.69776 3.56125 7.66908 3.56125H6.43358C6.40496 3.56125 6.37751 3.57262 6.35727 3.59286C6.33704 3.6131 6.32567 3.64055 6.32567 3.66917V4.76992C6.32567 4.82942 6.3735 4.87783 6.43358 4.87842ZM4.72442 4.87842H5.96108C5.98966 4.87811 6.01696 4.86654 6.03705 4.84623C6.05715 4.82591 6.06842 4.79849 6.06842 4.76992V3.66917C6.06842 3.64055 6.05705 3.6131 6.03681 3.59286C6.01657 3.57262 5.98912 3.56125 5.9605 3.56125H4.725C4.69638 3.56125 4.66893 3.57262 4.64869 3.59286C4.62845 3.6131 4.61708 3.64055 4.61708 3.66917V4.76992C4.61708 4.82942 4.6655 4.87783 4.725 4.87842M2.996 4.87842H4.23208C4.26076 4.87826 4.28821 4.86676 4.30843 4.84643C4.32865 4.8261 4.34 4.79859 4.34 4.76992V3.66917C4.34 3.64055 4.32863 3.6131 4.30839 3.59286C4.28815 3.57262 4.2607 3.56125 4.23208 3.56125H2.996C2.96733 3.56125 2.93982 3.5726 2.91948 3.59282C2.89915 3.61304 2.88765 3.64049 2.8875 3.66917V4.76992C2.8875 4.82942 2.9365 4.87783 2.996 4.87842ZM6.43358 6.46217H7.66908C7.69776 6.46217 7.72527 6.45082 7.7456 6.43059C7.76593 6.41037 7.77743 6.38292 7.77758 6.35425V5.2535C7.77758 5.22472 7.76615 5.19713 7.7458 5.17678C7.72546 5.15643 7.69786 5.145 7.66908 5.145H6.43358C6.40496 5.145 6.37751 5.15637 6.35727 5.17661C6.33704 5.19685 6.32567 5.2243 6.32567 5.25292V6.35425C6.32567 6.41375 6.3735 6.46217 6.43358 6.46217ZM4.72442 6.46217H5.96108C5.9896 6.46201 6.0169 6.45057 6.03702 6.43035C6.05713 6.41013 6.06842 6.38277 6.06842 6.35425V5.2535C6.06849 5.23933 6.06578 5.22528 6.06043 5.21216C6.05507 5.19904 6.04719 5.1871 6.03722 5.17702C6.02725 5.16694 6.0154 5.15893 6.00234 5.15344C5.98927 5.14794 5.97526 5.14508 5.96108 5.145H4.72442C4.6959 5.14515 4.6686 5.15659 4.64848 5.17681C4.62837 5.19704 4.61708 5.2244 4.61708 5.25292V6.35425C4.61708 6.41375 4.6655 6.46217 4.725 6.46217M2.996 6.46217H4.23208C4.2607 6.46217 4.28815 6.4508 4.30839 6.43056C4.32863 6.41032 4.34 6.38287 4.34 6.35425V5.2535C4.34008 5.23933 4.33736 5.22528 4.33201 5.21216C4.32666 5.19904 4.31877 5.1871 4.30881 5.17702C4.29884 5.16694 4.28698 5.15893 4.27392 5.15344C4.26086 5.14794 4.24684 5.14508 4.23267 5.145H2.996C2.96722 5.145 2.93963 5.15643 2.91928 5.17678C2.89893 5.19713 2.8875 5.22472 2.8875 5.2535V6.35425C2.8875 6.41375 2.9365 6.46217 2.996 6.46217ZM1.29267 6.46217H2.52933C2.55785 6.46201 2.58515 6.45057 2.60527 6.43035C2.62538 6.41013 2.63667 6.38277 2.63667 6.35425V5.2535C2.63674 5.23933 2.63403 5.22528 2.62868 5.21216C2.62332 5.19904 2.61544 5.1871 2.60547 5.17702C2.5955 5.16694 2.58365 5.15893 2.57059 5.15344C2.55752 5.14794 2.54351 5.14508 2.52933 5.145H1.29267C1.26415 5.14515 1.23685 5.15659 1.21673 5.17681C1.19662 5.19704 1.18533 5.2244 1.18533 5.25292V6.35425C1.18533 6.41375 1.23258 6.46217 1.29267 6.46217ZM13.8618 5.76917C13.8238 5.73942 13.4697 5.47167 12.7219 5.47167C12.5247 5.47225 12.3276 5.48917 12.1327 5.52242C11.9881 4.53075 11.1685 4.04658 11.1318 4.02558L10.9311 3.9095L10.7993 4.10025C10.6336 4.35575 10.5134 4.63808 10.4422 4.93442C10.3081 5.50025 10.3898 6.03225 10.6773 6.48667C10.3303 6.68033 9.77317 6.72758 9.66 6.73167H0.438084C0.3223 6.73182 0.211286 6.7778 0.129306 6.85956C0.0473251 6.94133 0.00104599 7.05222 0.000583572 7.168C-0.0102188 7.97582 0.12658 8.77882 0.40425 9.5375C0.722167 10.3705 1.19467 10.9842 1.81008 11.3598C2.49842 11.7816 3.61842 12.0231 4.88717 12.0231C5.46058 12.0248 6.03225 11.9729 6.59633 11.8679C7.37966 11.724 8.13341 11.4502 8.82642 11.0577C9.39808 10.7269 9.91142 10.3063 10.3489 9.81167C11.0792 8.9845 11.5144 8.06342 11.8382 7.245H11.9671C12.7674 7.245 13.2592 6.92475 13.5304 6.65642C13.7107 6.4855 13.8513 6.27725 13.9428 6.04625L14 5.87825L13.8618 5.76917Z" fill="#9F9FA9" fill-opacity="0.8"/>
</g>
<defs>
<clipPath id="clip0_0_8">
<rect width="14" height="14" fill="white"/>
</clipPath>
</defs>
</svg>
